<?xml version="1.0" standalone="no"?><!DOCTYPE svg PUBLIC "-//W3C//DTD SVG 1.1//EN" "http://www.w3.org/Graphics/SVG/1.1/DTD/svg11.dtd"><svg t="1697007100756" class="icon" viewBox="0 0 1024 1024" version="1.1" xmlns="http://www.w3.org/2000/svg" p-id="19604" xmlns:xlink="http://www.w3.org/1999/xlink" width="200" height="200"><path d="M456.283429 757.211429h-46.445715l-11.757714-11.748572 418.002286-421.028571A210.989714 210.989714 0 0 0 877.714286 174.857143 28.571429 28.571429 0 0 0 849.142857 146.285714h-2.651428a210.962286 210.962286 0 0 0-149.869715 61.915429L277.979429 625.362286l-11.730286-11.730286v-45.915429a28.571429 28.571429 0 1 0-57.142857 0v57.746286c0 7.588571 3.017143 14.848 8.374857 20.205714l60.461714 60.470858-59.346286 59.337142A57.124571 57.124571 0 0 0 146.285714 820.571429a57.142857 57.142857 0 1 0 112.457143-14.418286l59.611429-59.611429 59.446857 59.456a28.580571 28.580571 0 0 0 20.205714 8.365715h58.276572a28.571429 28.571429 0 1 0 0-57.142858z m280.685714-508.525715a154.066286 154.066286 0 0 1 80.466286-42.56 154.221714 154.221714 0 0 1-41.92 78.061715L357.677714 705.051429l-39.296-39.286858 418.578286-417.088z m-529.298286 75.638857A210.971429 210.971429 0 0 1 146.285714 174.994286v-0.146286A28.571429 28.571429 0 0 1 174.857143 146.285714h2.514286a210.944 210.944 0 0 1 150.061714 62.116572l129.060571 129.115428a28.571429 28.571429 0 0 1-40.411428 40.393143l-129.051429-129.097143a154.038857 154.038857 0 0 0-80.484571-42.660571 154.139429 154.139429 0 0 0 41.782857 78.016L378.230857 416.091429a28.571429 28.571429 0 1 1-40.713143 40.091428L207.670857 324.324571zM877.714286 820.571429a57.142857 57.142857 0 1 1-112.457143-14.418286l-59.611429-59.611429-59.446857 59.456a28.580571 28.580571 0 0 1-20.205714 8.365715H569.142857a28.571429 28.571429 0 1 1 0-57.142858h45.019429l11.776-11.785142-57.088-57.609143a28.571429 28.571429 0 1 1 40.594285-40.228572l56.905143 57.435429 39.076572-39.085714-59.117715-57.810286a28.571429 28.571429 0 0 1 39.954286-40.850286l59.574857 58.258286 11.913143-11.913143v-45.915429a28.571429 28.571429 0 1 1 57.142857 0v57.746286c0 7.588571-3.017143 14.848-8.365714 20.205714L746.057143 706.139429l59.346286 59.337142A57.124571 57.124571 0 0 1 877.714286 820.571429z" fill="#767676" p-id="19605"></path></svg>