<?xml version="1.0" standalone="no"?><!DOCTYPE svg PUBLIC "-//W3C//DTD SVG 1.1//EN" "http://www.w3.org/Graphics/SVG/1.1/DTD/svg11.dtd"><svg t="1696995819564" class="icon" viewBox="0 0 1024 1024" version="1.1" xmlns="http://www.w3.org/2000/svg" p-id="7955" xmlns:xlink="http://www.w3.org/1999/xlink" width="200" height="200"><path d="M962.043263 887.113525c-8.95519-408.100799-115.138156-570.573531-181.662425-631.980547 37.100073-14.072441 104.903654-24.306944 181.662425 35.820759 5.117251 3.837939 10.234503 5.117251 15.351754 5.117252 7.675877 0 15.351754-3.837939 20.469005-10.234503 8.95519-11.513816 6.396564-26.86557-3.837938-35.82076-86.993274-69.082894-167.589983-63.965642-218.762497-47.334575 11.513816-28.144883 31.982821-61.407017 65.244955-81.876022 38.379385-24.306944 89.551899-25.586257 149.679603-6.396565 14.072441 3.837939 28.144883-2.558626 31.982821-16.631067 3.837939-12.793128-2.558626-28.144883-16.631067-31.982821-75.479458-25.586257-140.724413-21.748318-193.17624 11.513816-31.982821 19.189693-55.010453 47.334575-70.362207 74.200145 1.279313-39.658698 11.513816-81.876022 44.77595-106.182967 12.793128-6.396564 15.351754-23.027631 6.396564-34.541446-7.675877-11.513816-24.306944-14.072441-35.820759-6.396565C702.342754 45.32567 690.828939 111.849939 690.828939 166.860391c-52.451827-49.893201-147.120978-101.065715-291.68333-53.73114-14.072441 3.837939-20.469006 19.189693-16.631067 31.982822 3.837939 12.793128 19.189693 20.469006 31.982821 16.631067 118.976095-38.379385 194.455553-1.279313 237.95219 38.379385-83.155335-20.469006-211.08662-20.469006-299.359207 118.976095-7.675877 11.513816-3.837939 28.144883 7.675877 35.82076 3.837939 2.558626 8.95519 3.837939 14.072442 3.837938 8.95519 0 16.631067-3.837939 21.748318-11.513815 76.758771-122.814034 190.617615-113.858844 258.421196-94.669151-52.451827 26.86557-106.182966 81.876022-115.138157 181.662425-1.279313 14.072441 8.95519 26.86557 23.027632 28.144882h2.558625c12.793128 0 24.306944-10.234503 25.586257-23.027631 10.234503-110.020905 83.155335-143.283039 118.976095-153.517542 78.038084 199.572804 53.73114 392.749045 25.586257 505.328575C669.08062 775.813307 592.321849 768.13743 511.72514 768.13743c-112.579531 0-214.924559 15.351754-298.079894 42.217324l34.541447-190.617614 175.26586 30.703508h3.837939c6.396564 0 12.793128-2.558626 17.910379-7.675877 6.396564-6.396564 8.95519-14.072441 6.396565-23.027631-17.91038-92.110525-84.434648-162.472732-172.707235-188.058989v-2.558626c1.279313-14.072441-8.95519-26.86557-23.027631-28.144883-14.072441-1.279313-25.586257 7.675877-28.144883 21.748319-89.551899-5.117251-176.545173 38.379385-223.879748 118.976095-3.837939 7.675877-5.117251 16.631067-1.279313 24.306944 3.837939 7.675877 10.234503 12.793128 19.189692 14.072441l175.265861 30.703509-39.658699 220.04181C60.127704 873.041084 0 931.889475 0 998.413743c0 14.072441 11.513816 25.586257 25.586257 25.586257h972.277765c14.072441 0 25.586257-11.513816 25.586257-25.586257 0-40.938011-21.748318-78.038084-61.407016-111.300218z m-716.415196-410.659424c66.524268 11.513816 120.255408 56.289765 144.562352 116.417469l-319.828212-56.289766c43.496637-48.613888 108.741592-71.64152 175.26586-60.127703z m533.473458-147.120978c52.451827 71.64152 118.976095 220.04181 130.489911 521.959642-34.541447-19.189693-76.758771-35.82076-124.093347-48.613888 26.86557-106.182966 51.172514-282.72814-6.396564-473.345754zM56.289765 972.827486C89.551899 896.068715 267.376385 819.309944 511.72514 819.309944s422.17324 76.758771 455.435374 153.517542H56.289765z" fill="#333333" p-id="7956"></path></svg>